<?xml version="1.0" encoding="UTF-8"?>
<svg id="Layer_1" data-name="Layer 1" xmlns="http://www.w3.org/2000/svg" xmlns:xlink="http://www.w3.org/1999/xlink" viewBox="0 0 1024 1024">
  <defs>
    <style>
      .cls-1 {
        opacity: .49;
      }

      .cls-2 {
        fill: #f8be5d;
      }

      .cls-3 {
        fill: url(#linear-gradient);
      }
    </style>
    <linearGradient id="linear-gradient" x1="149.96" y1="149.96" x2="874.04" y2="874.04" gradientUnits="userSpaceOnUse">
      <stop offset="0" stop-color="#237d9f"/>
      <stop offset="1" stop-color="#002037"/>
    </linearGradient>
  </defs>
  <circle class="cls-3" cx="512" cy="512" r="512"/>
  <path class="cls-1" d="M260.99,649.92c-17.95,0-36.16-2-54.61-5.98-18.46-3.99-34.66-9.85-48.62-17.58l29.92-65.08c11.22,6.49,23,11.29,35.35,14.4,12.34,3.12,24,4.67,34.97,4.67,9.97,0,18.14-1.68,24.5-5.05s9.54-8.42,9.54-15.15c0-5.73-2.37-10.16-7.11-13.28-4.74-3.12-12.72-4.68-23.94-4.68h-34.78v-54.23l67.7-68.82,7.85,29.55h-130.53v-66.58h195.24v54.23l-67.7,68.82-42.26-23.94h23.19c32.91,0,57.97,7.36,75.18,22.07,17.21,14.72,25.81,33.66,25.81,56.85,0,14.96-4.18,29.3-12.53,43.01-8.36,13.72-21.32,24.94-38.9,33.66-17.58,8.73-40.34,13.09-68.26,13.09Z"/>
  <path class="cls-1" d="M518.56,643.94l-83.78-261.82h90.89l67.7,221.05h-45.63l71.81-221.05h81.16l66.95,221.05h-43.76l70.69-221.05h83.78l-83.78,261.82h-94.63l-54.61-181.03h25.43l-57.6,181.03h-94.63Z"/>
  <path class="cls-2" d="M248.86,641.88c-17.95,0-36.16-2-54.61-5.98-18.46-3.99-34.66-9.85-48.62-17.58l29.92-65.08c11.22,6.49,23,11.29,35.35,14.4,12.34,3.12,24,4.67,34.97,4.67,9.97,0,18.14-1.68,24.5-5.05s9.54-8.42,9.54-15.15c0-5.73-2.37-10.16-7.11-13.28-4.74-3.12-12.72-4.68-23.94-4.68h-34.78v-54.23l67.7-68.82,7.85,29.55h-130.53v-66.58h195.24v54.23l-67.7,68.82-42.26-23.94h23.19c32.91,0,57.97,7.36,75.18,22.07,17.21,14.72,25.81,33.66,25.81,56.85,0,14.96-4.18,29.3-12.53,43.01-8.36,13.72-21.32,24.94-38.9,33.66-17.58,8.73-40.34,13.09-68.26,13.09Z"/>
  <path class="cls-2" d="M506.43,635.89l-83.78-261.82h90.89l67.7,221.05h-45.63l71.81-221.05h81.16l66.95,221.05h-43.76l70.69-221.05h83.78l-83.78,261.82h-94.63l-54.61-181.03h25.43l-57.6,181.03h-94.63Z"/>
</svg>