<?xml version="1.0" encoding="UTF-8"?>
<svg id="Layer_1" data-name="Layer 1" xmlns="http://www.w3.org/2000/svg" viewBox="0 0 1024 1024">
  <defs>
    <style>
      .cls-1 {
        fill: #f1f5f9;
      }

      .cls-2 {
        fill: #2b7fff;
      }
    </style>
  </defs>
  <circle class="cls-1" cx="512" cy="512" r="512"/>
  <path class="cls-2" d="M226.57,664.32c-20.42,0-41.13-2.27-62.12-6.81-20.99-4.53-39.43-11.2-55.31-20l34.04-74.03c12.76,7.38,26.17,12.84,40.21,16.38,14.04,3.55,27.3,5.32,39.78,5.32,11.34,0,20.63-1.91,27.87-5.74,7.23-3.83,10.85-9.57,10.85-17.23,0-6.52-2.7-11.55-8.08-15.1-5.39-3.54-14.47-5.32-27.23-5.32h-39.57v-61.69l77.01-78.29,8.93,33.61H124.46v-75.73h222.09v61.69l-77.01,78.29-48.08-27.23h26.38c37.44,0,65.95,8.37,85.52,25.1,19.57,16.74,29.36,38.29,29.36,64.67,0,17.02-4.75,33.33-14.25,48.93-9.51,15.6-24.25,28.37-44.25,38.29-20,9.93-45.88,14.89-77.65,14.89Z"/>
  <path class="cls-2" d="M519.57,657.51l-95.3-297.82h103.39l77.01,251.45h-51.91l81.69-251.45h92.33l76.16,251.45h-49.78l80.41-251.45h95.3l-95.3,297.82h-107.64l-62.12-205.92h28.93l-65.52,205.92h-107.64Z"/>
</svg>